# xmcd
#
# Track frame offsets:
#	150
#	15615
#	33475
#	47670
#	64237
#	86479
#	104802
#	125345
#	140330
#	166480
#	181561
#	198227
#	215561
#	228308
#	242668
#	260903
#	278412
#
# Disc length: 3930 seconds
#
# Revision: 1
# Processed by: cddbd v1.5.2PL0 Copyright (c) Steve Scherf et al.
# Submitted via: EZCDAudioConverter 6.0.2.1
#
DISCID=ee0f5811
DTITLE=Vince Gill - Next Big Thing
DYEAR=2003
DGENRE=Country
TTITLE0=Next Big Thing
TTITLE1=She Never Makes Me Cry
TTITLE2=Don’t Let Her Get Away
TTITLE3=Someday
TTITLE4=These Broken Hearts
TTITLE5=We Had It All
TTITLE6=Young Man’s Town
TTITLE7=Real Mean Bottle
TTITLE8=Whippoorwill River
TTITLE9=The Sun’s Gonna Shine on You
TTITLE10=From Where I Stand
TTITLE11=You Ain’t Foolin’ Nobody
TTITLE12=Old Time Fiddle
TTITLE13=Without You
TTITLE14=Two Hearts
TTITLE15=This Old Guitar and Me
TTITLE16=In These Last Few Days
EXTD=
EXTT0=
EXTT1=
EXTT2=
EXTT3=
EXTT4=
EXTT5=
EXTT6=
EXTT7=
EXTT8=
EXTT9=
EXTT10=
EXTT11=
EXTT12=
EXTT13=
EXTT14=
EXTT15=
EXTT16=
PLAYORDER=
